<svg xmlns="http://www.w3.org/2000/svg" viewBox="0 0 64 64" width="50px" height="50px"><linearGradient id="R6OxovnxeGVHDQD1NvbEma" x1="32" x2="32" y1="6" y2="57.869" gradientUnits="userSpaceOnUse" spreadMethod="reflect"><stop offset="0" stop-color="#1a6dff"/><stop offset="1" stop-color="#c822ff"/></linearGradient><path fill="url(#R6OxovnxeGVHDQD1NvbEma)" d="M32,58C17.663,58,6,46.336,6,32S17.663,6,32,6s26,11.664,26,26S46.337,58,32,58z M32,8 C18.767,8,8,18.767,8,32s10.767,24,24,24s24-10.767,24-24S45.233,8,32,8z"/><path fill="none" d="M6 6H58V58H6z"/><linearGradient id="R6OxovnxeGVHDQD1NvbEmb" x1="32" x2="32" y1="46.826" y2="49.956" gradientUnits="userSpaceOnUse" spreadMethod="reflect"><stop offset="0" stop-color="#6dc7ff"/><stop offset="1" stop-color="#e6abff"/></linearGradient><path fill="url(#R6OxovnxeGVHDQD1NvbEmb)" d="M32,49.957c-0.553,0-1-0.448-1-1v-1.13c0-0.552,0.447-1,1-1s1,0.448,1,1v1.13 C33,49.509,32.553,49.957,32,49.957z"/><linearGradient id="R6OxovnxeGVHDQD1NvbEmc" x1="32" x2="32" y1="14.043" y2="17.174" gradientUnits="userSpaceOnUse" spreadMethod="reflect"><stop offset="0" stop-color="#6dc7ff"/><stop offset="1" stop-color="#e6abff"/></linearGradient><path fill="url(#R6OxovnxeGVHDQD1NvbEmc)" d="M32,17.174c-0.553,0-1-0.448-1-1v-1.13c0-0.552,0.447-1,1-1s1,0.448,1,1v1.13 C33,16.726,32.553,17.174,32,17.174z"/><linearGradient id="R6OxovnxeGVHDQD1NvbEmd" x1="25.727" x2="25.727" y1="45.62" y2="48.666" gradientUnits="userSpaceOnUse" spreadMethod="reflect"><stop offset="0" stop-color="#6dc7ff"/><stop offset="1" stop-color="#e6abff"/></linearGradient><path fill="url(#R6OxovnxeGVHDQD1NvbEmd)" d="M25.51,48.666c-0.128,0-0.258-0.025-0.384-0.077c-0.51-0.211-0.752-0.797-0.54-1.307 l0.434-1.044c0.213-0.511,0.797-0.753,1.308-0.54c0.51,0.211,0.752,0.797,0.54,1.307l-0.434,1.044 C26.273,48.434,25.901,48.666,25.51,48.666z"/><linearGradient id="R6OxovnxeGVHDQD1NvbEme" x1="38.273" x2="38.273" y1="15.334" y2="18.379" gradientUnits="userSpaceOnUse" spreadMethod="reflect"><stop offset="0" stop-color="#6dc7ff"/><stop offset="1" stop-color="#e6abff"/></linearGradient><path fill="url(#R6OxovnxeGVHDQD1NvbEme)" d="M38.057,18.379c-0.128,0-0.258-0.025-0.384-0.077c-0.51-0.211-0.752-0.797-0.54-1.307 l0.434-1.044c0.212-0.51,0.796-0.752,1.308-0.54c0.51,0.211,0.752,0.797,0.54,1.307l-0.434,1.044 C38.82,18.147,38.448,18.379,38.057,18.379z"/><linearGradient id="R6OxovnxeGVHDQD1NvbEmf" x1="15.609" x2="15.609" y1="31" y2="33" gradientUnits="userSpaceOnUse" spreadMethod="reflect"><stop offset="0" stop-color="#6dc7ff"/><stop offset="1" stop-color="#e6abff"/></linearGradient><path fill="url(#R6OxovnxeGVHDQD1NvbEmf)" d="M16.174,33h-1.13c-0.553,0-1-0.448-1-1s0.447-1,1-1h1.13c0.553,0,1,0.448,1,1 S16.727,33,16.174,33z"/><linearGradient id="R6OxovnxeGVHDQD1NvbEmg" x1="48.391" x2="48.391" y1="31" y2="33" gradientUnits="userSpaceOnUse" spreadMethod="reflect"><stop offset="0" stop-color="#6dc7ff"/><stop offset="1" stop-color="#e6abff"/></linearGradient><path fill="url(#R6OxovnxeGVHDQD1NvbEmg)" d="M48.956,33h-1.13c-0.553,0-1-0.448-1-1s0.447-1,1-1h1.13c0.553,0,1,0.448,1,1 S49.509,33,48.956,33z"/><linearGradient id="R6OxovnxeGVHDQD1NvbEmh" x1="16.874" x2="16.874" y1="37.098" y2="39.534" gradientUnits="userSpaceOnUse" spreadMethod="reflect"><stop offset="0" stop-color="#6dc7ff"/><stop offset="1" stop-color="#e6abff"/></linearGradient><path fill="url(#R6OxovnxeGVHDQD1NvbEmh)" d="M16.353,39.534c-0.391,0-0.763-0.231-0.923-0.616c-0.213-0.509,0.028-1.095,0.538-1.308 l1.043-0.435c0.508-0.213,1.095,0.027,1.308,0.538c0.213,0.509-0.028,1.095-0.538,1.308l-1.043,0.435 C16.611,39.509,16.481,39.534,16.353,39.534z"/><linearGradient id="R6OxovnxeGVHDQD1NvbEmi" x1="47.126" x2="47.126" y1="24.466" y2="26.902" gradientUnits="userSpaceOnUse" spreadMethod="reflect"><stop offset="0" stop-color="#6dc7ff"/><stop offset="1" stop-color="#e6abff"/></linearGradient><path fill="url(#R6OxovnxeGVHDQD1NvbEmi)" d="M46.604,26.902c-0.391,0-0.763-0.231-0.923-0.616c-0.213-0.509,0.028-1.095,0.538-1.308 l1.043-0.435c0.509-0.212,1.095,0.027,1.308,0.538c0.213,0.509-0.028,1.095-0.538,1.308l-1.043,0.435 C46.863,26.877,46.733,26.902,46.604,26.902z"/><linearGradient id="R6OxovnxeGVHDQD1NvbEmj" x1="16.855" x2="16.855" y1="24.512" y2="26.946" gradientUnits="userSpaceOnUse" spreadMethod="reflect"><stop offset="0" stop-color="#6dc7ff"/><stop offset="1" stop-color="#e6abff"/></linearGradient><path fill="url(#R6OxovnxeGVHDQD1NvbEmj)" d="M17.378,26.946c-0.128,0-0.258-0.025-0.383-0.077l-1.045-0.433 c-0.511-0.211-0.753-0.796-0.541-1.307c0.211-0.511,0.8-0.751,1.307-0.541l1.045,0.433c0.511,0.211,0.753,0.796,0.541,1.307 C18.143,26.713,17.77,26.946,17.378,26.946z"/><linearGradient id="R6OxovnxeGVHDQD1NvbEmk" x1="47.145" x2="47.145" y1="37.055" y2="39.488" gradientUnits="userSpaceOnUse" spreadMethod="reflect"><stop offset="0" stop-color="#6dc7ff"/><stop offset="1" stop-color="#e6abff"/></linearGradient><path fill="url(#R6OxovnxeGVHDQD1NvbEmk)" d="M47.667,39.488c-0.128,0-0.258-0.025-0.383-0.077l-1.045-0.433 c-0.511-0.211-0.753-0.796-0.541-1.307c0.211-0.511,0.799-0.751,1.307-0.541l1.045,0.433c0.511,0.211,0.753,0.796,0.541,1.307 C48.432,39.256,48.059,39.488,47.667,39.488z"/><linearGradient id="R6OxovnxeGVHDQD1NvbEml" x1="32" x2="32" y1="17" y2="47" gradientUnits="userSpaceOnUse" spreadMethod="reflect"><stop offset="0" stop-color="#6dc7ff"/><stop offset="1" stop-color="#e6abff"/></linearGradient><path fill="url(#R6OxovnxeGVHDQD1NvbEml)" d="M18,47c-0.258,0-0.515-0.1-0.707-0.293c-0.324-0.324-0.387-0.828-0.15-1.222l10.5-17.5 c0.084-0.141,0.202-0.258,0.343-0.343l17.5-10.5c0.394-0.236,0.896-0.175,1.222,0.15c0.324,0.324,0.387,0.828,0.15,1.222l-10.5,17.5 c-0.084,0.141-0.202,0.258-0.343,0.343l-17.5,10.5C18.354,46.953,18.177,47,18,47z M29.229,29.229l-8.313,13.855l13.856-8.313 l8.313-13.855L29.229,29.229z"/><linearGradient id="R6OxovnxeGVHDQD1NvbEmm" x1="32" x2="32" y1="6" y2="57.765" gradientUnits="userSpaceOnUse" spreadMethod="reflect"><stop offset="0" stop-color="#1a6dff"/><stop offset="1" stop-color="#c822ff"/></linearGradient><path fill="url(#R6OxovnxeGVHDQD1NvbEmm)" d="M32,53c-11.579,0-21-9.42-21-21s9.421-21,21-21s21,9.42,21,21S43.579,53,32,53z M32,13 c-10.477,0-19,8.523-19,19s8.523,19,19,19s19-8.523,19-19S42.477,13,32,13z"/><linearGradient id="R6OxovnxeGVHDQD1NvbEmn" x1="32" x2="32" y1="30" y2="34" gradientUnits="userSpaceOnUse" spreadMethod="reflect"><stop offset="0" stop-color="#6dc7ff"/><stop offset="1" stop-color="#e6abff"/></linearGradient><path fill="url(#R6OxovnxeGVHDQD1NvbEmn)" d="M32 30A2 2 0 1 0 32 34A2 2 0 1 0 32 30Z"/><linearGradient id="R6OxovnxeGVHDQD1NvbEmo" x1="20.399" x2="20.399" y1="19.021" y2="21.819" gradientUnits="userSpaceOnUse" spreadMethod="reflect"><stop offset="0" stop-color="#6dc7ff"/><stop offset="1" stop-color="#e6abff"/></linearGradient><path fill="url(#R6OxovnxeGVHDQD1NvbEmo)" d="M20.8,21.819c-0.255,0-0.511-0.097-0.706-0.292l-0.801-0.798 c-0.391-0.39-0.393-1.023-0.002-1.415c0.39-0.389,1.022-0.393,1.414-0.002l0.801,0.798c0.391,0.39,0.393,1.023,0.002,1.415 C21.312,21.721,21.057,21.819,20.8,21.819z"/><linearGradient id="R6OxovnxeGVHDQD1NvbEmp" x1="43.601" x2="43.601" y1="42.181" y2="44.979" gradientUnits="userSpaceOnUse" spreadMethod="reflect"><stop offset="0" stop-color="#6dc7ff"/><stop offset="1" stop-color="#e6abff"/></linearGradient><path fill="url(#R6OxovnxeGVHDQD1NvbEmp)" d="M44.001,44.979c-0.255,0-0.511-0.097-0.706-0.292l-0.801-0.798 c-0.391-0.39-0.393-1.023-0.002-1.415c0.39-0.39,1.022-0.393,1.414-0.002l0.801,0.798c0.391,0.39,0.393,1.023,0.002,1.415 C44.514,44.881,44.258,44.979,44.001,44.979z"/><linearGradient id="R6OxovnxeGVHDQD1NvbEmq" x1="25.716" x2="25.716" y1="15.339" y2="18.384" gradientUnits="userSpaceOnUse" spreadMethod="reflect"><stop offset="0" stop-color="#6dc7ff"/><stop offset="1" stop-color="#e6abff"/></linearGradient><path fill="url(#R6OxovnxeGVHDQD1NvbEmq)" d="M25.933,18.384c-0.392,0-0.764-0.232-0.924-0.617l-0.434-1.044 c-0.212-0.51,0.03-1.095,0.54-1.307c0.512-0.211,1.095,0.03,1.308,0.54L26.856,17c0.212,0.51-0.03,1.095-0.54,1.307 C26.19,18.359,26.061,18.384,25.933,18.384z"/><linearGradient id="R6OxovnxeGVHDQD1NvbEmr" x1="38.284" x2="38.284" y1="45.617" y2="48.662" gradientUnits="userSpaceOnUse" spreadMethod="reflect"><stop offset="0" stop-color="#6dc7ff"/><stop offset="1" stop-color="#e6abff"/></linearGradient><path fill="url(#R6OxovnxeGVHDQD1NvbEmr)" d="M38.501,48.662c-0.392,0-0.764-0.232-0.924-0.617L37.144,47 c-0.212-0.51,0.03-1.095,0.54-1.307c0.513-0.212,1.095,0.03,1.308,0.54l0.434,1.044c0.212,0.51-0.03,1.095-0.54,1.307 C38.759,48.637,38.629,48.662,38.501,48.662z"/></svg>