<svg xmlns="http://www.w3.org/2000/svg" viewBox="0 0 64 64" width="50px" height="50px"><linearGradient id="ztmD38hhOilm84eP7CqXUa" x1="32" x2="32" y1="6" y2="58" gradientUnits="userSpaceOnUse" spreadMethod="reflect"><stop offset="0" stop-color="#1a6dff"/><stop offset="1" stop-color="#c822ff"/></linearGradient><path fill="url(#ztmD38hhOilm84eP7CqXUa)" d="M31.912,58C16.944,58,8,44.667,8,31.777C8,16.6,17.833,6,31.912,6C46.095,6,56,16.6,56,31.777 C56,44.667,46.99,58,31.912,58z M31.912,8C19.011,8,10,17.777,10,31.777C10,43.684,18.196,56,31.912,56 C45.738,56,54,43.684,54,31.777C54,17.777,44.917,8,31.912,8z"/><linearGradient id="ztmD38hhOilm84eP7CqXUb" x1="32.042" x2="32.042" y1="6.328" y2="58.443" gradientUnits="userSpaceOnUse" spreadMethod="reflect"><stop offset="0" stop-color="#1a6dff"/><stop offset="1" stop-color="#c822ff"/></linearGradient><path fill="url(#ztmD38hhOilm84eP7CqXUb)" d="M31.956,52c-3.689,0-6.253-2.459-7.621-7.309c-1.11-3.931-1.252-9.735-1.251-13.482 c0-12.734,2.986-19.191,8.874-19.191C41,12.018,41,26.463,41,31.209C41,36.622,41,52,31.958,52l0,0C31.958,52,31.957,52,31.956,52z M31.958,13.999c-4.583,0-6.908,5.791-6.908,17.211c0,3.618,0.132,9.244,1.176,12.94c1.115,3.951,2.99,5.871,5.732,5.871v-0.002 c6.342,0,7.076-11.164,7.076-18.81C39.034,19.79,36.653,13.999,31.958,13.999z"/><linearGradient id="ztmD38hhOilm84eP7CqXUc" x1="43" x2="43" y1="8" y2="56" gradientUnits="userSpaceOnUse" spreadMethod="reflect"><stop offset="0" stop-color="#6dc7ff"/><stop offset="1" stop-color="#e6abff"/></linearGradient><path fill="url(#ztmD38hhOilm84eP7CqXUc)" d="M32,8v4.02c9,0.04,9,14.45,9,19.19c0,5.4,0,20.74-9,20.79v4c13.78-0.05,22-12.35,22-24.22 C54,17.81,44.96,8.05,32,8z"/><linearGradient id="ztmD38hhOilm84eP7CqXUd" x1="35.93" x2="35.93" y1="10.947" y2="20.775" gradientUnits="userSpaceOnUse" spreadMethod="reflect"><stop offset="0" stop-color="#1a6dff"/><stop offset="1" stop-color="#c822ff"/></linearGradient><path fill="url(#ztmD38hhOilm84eP7CqXUd)" d="M32,12.02c4.42,0.05,6.69,3.48,7.86,7.54C38.71,15.48,36.44,12.02,32,12.02z"/></svg>