<svg xmlns="http://www.w3.org/2000/svg" viewBox="0 0 64 64" width="50px" height="50px"><linearGradient id="gbSQjDCg3y4zcBB0YOI09a" x1="32.005" x2="32.005" y1="6" y2="58" gradientUnits="userSpaceOnUse" spreadMethod="reflect"><stop offset="0" stop-color="#1a6dff"/><stop offset="1" stop-color="#c822ff"/></linearGradient><path fill="url(#gbSQjDCg3y4zcBB0YOI09a)" d="M35.986,58c-2.823,0-5.285-0.373-7.752-1.174c-2.556-0.832-7.324-2.93-10.54-7.646 c-0.823-1.206-2.311-3.613-3.033-6.175c-0.671-2.384-0.64-4.784-0.64-6.025c0-5.074,1.432-9.35,4.199-12.577 c3.611-4.21,8.105-6.067,8.294-6.145c0.426-0.17,0.916-0.032,1.185,0.342c0.269,0.374,0.248,0.884-0.051,1.235 c-0.014,0.016-1.353,1.597-2.163,3.511C25.06,24.351,24.947,25.333,24.93,26h15.042c-0.031-1.461-0.349-4.388-2.252-6.481 C36.2,17.848,33.927,17,30.963,17c-4.951,0-8.936,2.068-12.182,4.092l0,0c-5.683,3.543-8.902,8.369-8.935,8.42 c-0.248,0.386-0.726,0.552-1.159,0.405c-0.433-0.147-0.711-0.57-0.675-1.027c0.038-0.469,0.928-11.316,9.636-17.966 C21.927,7.657,26.889,6,32.395,6c2.051,0,7.335,0.318,12.103,3.263c4.449,2.748,6.343,5.065,8.469,8.639 c0.868,1.459,1.611,3.351,2.093,5.327c0.828,3.394,0.935,7.354,0.939,7.521l0,5.23c0,0.552-0.447,1-0.998,1l-30.229-0.027 c0.201,1.279,0.791,3.635,2.699,5.553C29.778,44.825,33.304,46,37.952,46c6.61,0,12.368-3.794,12.425-3.832 c0.306-0.205,0.701-0.224,1.025-0.05c0.325,0.174,0.527,0.513,0.527,0.882v10c0,0.335-0.168,0.648-0.447,0.833 C51.226,54.004,45.097,58,35.986,58z M23.895,22.016c-1.307,0.895-2.811,2.116-4.159,3.688c-2.452,2.86-3.748,6.774-3.748,11.32 c0,1.269,0,3.319,0.596,5.437c0.644,2.289,2.006,4.485,2.76,5.59c2.883,4.226,7.194,6.12,9.508,6.872 C31.111,55.658,33.379,56,35.986,56c7.144,0,12.423-2.692,13.947-3.565v-7.692C47.644,45.971,43.087,48,37.952,48 c-5.217,0-9.228-1.383-11.922-4.11c-3.386-3.428-3.38-7.701-3.378-7.881c0.006-0.548,0.451-0.989,0.998-0.989h30.354v-4.245 c0-0.014-0.106-3.891-0.882-7.072c-0.43-1.763-1.111-3.504-1.869-4.778c-2.003-3.365-3.681-5.415-7.802-7.96 C39.117,8.289,34.276,8,32.395,8c-5.059,0-9.613,1.519-13.535,4.515c-4.92,3.757-7.167,9.19-8.17,12.845 c1.636-1.817,4.01-4.078,7.038-5.966C21.008,17.348,25.478,15,30.963,15c3.556,0,6.33,1.072,8.245,3.185 c3.213,3.547,2.754,8.694,2.732,8.912C41.891,27.609,41.461,28,40.947,28H23.974c-0.494,0-0.914-0.362-0.987-0.852 c-0.014-0.091-0.323-2.259,0.66-4.583C23.726,22.378,23.809,22.195,23.895,22.016z M18.254,20.243h0.01H18.254z"/><linearGradient id="gbSQjDCg3y4zcBB0YOI09b" x1="32.346" x2="32.346" y1="8" y2="56" gradientUnits="userSpaceOnUse" spreadMethod="reflect"><stop offset="0" stop-color="#6dc7ff"/><stop offset="1" stop-color="#e6abff"/></linearGradient><path fill="url(#gbSQjDCg3y4zcBB0YOI09b)" d="M22.646,36.01c0,0.18,0,4.45,3.385,7.88C28.727,46.62,32.73,48,37.952,48 c5.132,0,9.694-2.03,11.981-3.26v7.69C48.405,53.31,43.133,56,35.985,56c-2.606,0-4.872-0.34-7.139-1.08 c-2.306-0.75-6.619-2.64-9.505-6.87c-0.749-1.1-2.117-3.3-2.756-5.59c-0.599-2.12-0.599-4.17-0.599-5.44 c0-4.54,1.298-8.46,3.744-11.32c1.348-1.57,2.855-2.79,4.163-3.68c-0.09,0.18-0.17,0.36-0.25,0.55 c-0.978,2.32-0.669,4.49-0.659,4.58c0.07,0.49,0.489,0.85,0.988,0.85h16.973c0.509,0,0.948-0.39,0.998-0.9 c0.02-0.22,0.479-5.37-2.736-8.91C37.293,16.07,34.517,15,30.963,15c-5.481,0-9.954,2.35-13.239,4.39 c-3.025,1.89-5.401,4.15-7.039,5.97c1.008-3.66,3.255-9.09,8.177-12.85C22.786,9.52,27.339,8,32.391,8 c1.887,0,6.729,0.29,11.062,2.96c4.113,2.55,5.801,4.6,7.797,7.97c0.759,1.27,1.438,3.01,1.867,4.77 c0.779,3.18,0.889,7.06,0.889,7.07v4.25H23.645C23.106,35.02,22.656,35.46,22.646,36.01z"/></svg>