<?xml version="1.0" encoding="iso-8859-1"?>
<!-- Generator: Adobe Illustrator 19.0.0, SVG Export Plug-In . SVG Version: 6.00 Build 0)  -->
<svg version="1.1" id="Layer_1" xmlns="http://www.w3.org/2000/svg" xmlns:xlink="http://www.w3.org/1999/xlink" x="0px" y="0px"
	 viewBox="0 0 491.519 491.519" style="enable-background:new 0 0 491.519 491.519;" xml:space="preserve">
<path style="fill:#EBF0F3;" d="M448.502,82.74H43.016c-5.849,0-10.59,4.741-10.59,10.591v284.794h426.667V93.332
	C459.093,87.481,454.351,82.74,448.502,82.74z"/>
<rect x="57.733" y="108.032" style="fill:#64798A;" width="376.064" height="244.782"/>
<polygon style="fill:#3A556A;" points="57.731,352.825 433.788,108.044 433.788,352.825 "/>
<path style="fill:#D5D6DB;" d="M0,381.215v13.842c0,1.363,0.893,2.565,2.198,2.958l35.32,10.634
	c0.288,0.087,0.588,0.131,0.891,0.131H453.11c0.301,0,0.601-0.044,0.89-0.131l35.32-10.634c1.305-0.393,2.199-1.595,2.199-2.958
	v-13.842c0-1.706-1.383-3.089-3.09-3.089H3.089C1.382,378.126,0,379.508,0,381.215z"/>
<g>
	<polygon style="fill:#64798A;" points="205.942,378.126 209.81,385.205 281.708,385.205 285.576,378.126 	"/>
	<circle style="fill:#64798A;" cx="245.76" cy="96.199" r="6.426"/>
</g>
<circle style="fill:#3A556A;" cx="245.76" cy="96.199" r="2.729"/>
<g>
</g>
<g>
</g>
<g>
</g>
<g>
</g>
<g>
</g>
<g>
</g>
<g>
</g>
<g>
</g>
<g>
</g>
<g>
</g>
<g>
</g>
<g>
</g>
<g>
</g>
<g>
</g>
<g>
</g>
</svg>
