<?xml version="1.0" encoding="iso-8859-1"?>
<!-- Generator: Adobe Illustrator 19.0.0, SVG Export Plug-In . SVG Version: 6.00 Build 0)  -->
<svg version="1.1" id="Layer_1" xmlns="http://www.w3.org/2000/svg" xmlns:xlink="http://www.w3.org/1999/xlink" x="0px" y="0px"
	 viewBox="0 0 503.322 503.322" style="enable-background:new 0 0 503.322 503.322;" xml:space="preserve">
<g>
	<path style="fill:#ECF0F1;" d="M364.808,503.322H138.512c-14.188,0-25.695-11.507-25.695-25.704V25.704
		C112.817,11.507,124.324,0,138.512,0h226.295c14.197,0,25.704,11.507,25.704,25.704v451.914
		C390.512,491.815,379.005,503.322,364.808,503.322"/>
	<polygon style="fill:#38454F;" points="112.814,433.9 390.508,433.9 390.508,52.07 112.814,52.07 	"/>
	<g>
		<path style="fill:#546A79;" d="M286.373,34.712h-43.39c-4.799,0-8.678-3.879-8.678-8.678s3.879-8.678,8.678-8.678h43.39
			c4.799,0,8.678,3.879,8.678,8.678S291.172,34.712,286.373,34.712"/>
		<path style="fill:#546A79;" d="M216.949,34.712h-8.678c-4.799,0-8.678-3.879-8.678-8.678s3.879-8.678,8.678-8.678h8.678
			c4.799,0,8.678,3.879,8.678,8.678S221.748,34.712,216.949,34.712"/>
	</g>
	<g>
		<path style="fill:#BDC3C7;" d="M104.136,95.458c-4.799,0-8.678-3.879-8.678-8.678v-8.678c0-4.799,3.879-8.678,8.678-8.678
			c4.799,0,8.678,3.879,8.678,8.678v8.678C112.814,91.579,108.935,95.458,104.136,95.458"/>
		<path style="fill:#BDC3C7;" d="M104.136,130.169c-4.799,0-8.678-3.879-8.678-8.678v-8.678c0-4.799,3.879-8.678,8.678-8.678
			c4.799,0,8.678,3.879,8.678,8.678v8.678C112.814,126.29,108.935,130.169,104.136,130.169"/>
		<path style="fill:#BDC3C7;" d="M104.136,164.881c-4.799,0-8.678-3.879-8.678-8.678v-8.678c0-4.799,3.879-8.678,8.678-8.678
			c4.799,0,8.678,3.879,8.678,8.678v8.678C112.814,161.002,108.935,164.881,104.136,164.881"/>
		<path style="fill:#BDC3C7;" d="M277.695,468.61c0,14.379-11.655,26.034-26.034,26.034s-26.034-11.654-26.034-26.034
			s11.655-26.034,26.034-26.034S277.695,454.231,277.695,468.61"/>
	</g>
	<path style="fill:#ED7161;" d="M381.831,89.68c-57.509,0-104.136,40.405-104.136,90.251c0,18.371,6.482,34.339,17.356,48.597
		c-1.432,16.471-5.667,40.769-17.356,52.068c0,0,36.56-3.237,60.746-17.356c13.434,5.476,27.561,8.678,43.39,8.678
		c57.509,0,104.136-42.14,104.136-91.986S439.339,89.68,381.831,89.68"/>
	<path style="fill:#4482C3;" d="M121.492,193.815c57.509,0,104.136,40.405,104.136,90.251c0,18.371-6.482,34.339-17.356,48.597
		c1.432,16.471,5.667,40.769,17.356,52.068c0,0-36.56-3.237-60.746-17.356c-13.433,5.476-27.561,8.678-43.39,8.678
		c-57.509,0-104.136-42.14-104.136-91.986S63.983,193.815,121.492,193.815"/>
	<g>
		<path style="fill:#FFFFFF;" d="M416.542,150.426h-69.424c-4.79,0-8.678-3.879-8.678-8.678s3.888-8.678,8.678-8.678h69.424
			c4.79,0,8.678,3.879,8.678,8.678S421.333,150.426,416.542,150.426"/>
		<path style="fill:#FFFFFF;" d="M416.542,219.849h-69.424c-4.79,0-8.678-3.879-8.678-8.678c0-4.799,3.888-8.678,8.678-8.678h69.424
			c4.79,0,8.678,3.879,8.678,8.678C425.22,215.97,421.333,219.849,416.542,219.849"/>
		<path style="fill:#FFFFFF;" d="M442.576,185.137H321.085c-4.79,0-8.678-3.879-8.678-8.678c0-4.799,3.888-8.678,8.678-8.678
			h121.492c4.79,0,8.678,3.879,8.678,8.678C451.254,181.258,447.366,185.137,442.576,185.137"/>
		<path style="fill:#FFFFFF;" d="M156.203,254.561H86.78c-4.79,0-8.678-3.879-8.678-8.678c0-4.799,3.888-8.678,8.678-8.678h69.424
			c4.79,0,8.678,3.879,8.678,8.678C164.881,250.682,160.994,254.561,156.203,254.561"/>
		<path style="fill:#FFFFFF;" d="M156.203,323.985H86.78c-4.79,0-8.678-3.879-8.678-8.678c0-4.799,3.888-8.678,8.678-8.678h69.424
			c4.79,0,8.678,3.879,8.678,8.678C164.881,320.106,160.994,323.985,156.203,323.985"/>
		<path style="fill:#FFFFFF;" d="M182.237,289.273H60.746c-4.79,0-8.678-3.879-8.678-8.678s3.888-8.678,8.678-8.678h121.492
			c4.79,0,8.678,3.879,8.678,8.678S187.028,289.273,182.237,289.273"/>
	</g>
</g>
<g>
</g>
<g>
</g>
<g>
</g>
<g>
</g>
<g>
</g>
<g>
</g>
<g>
</g>
<g>
</g>
<g>
</g>
<g>
</g>
<g>
</g>
<g>
</g>
<g>
</g>
<g>
</g>
<g>
</g>
</svg>
