<?xml version="1.0" encoding="iso-8859-1"?>
<!-- Generator: Adobe Illustrator 22.0.0, SVG Export Plug-In . SVG Version: 6.00 Build 0)  -->
<svg xmlns="http://www.w3.org/2000/svg" xmlns:xlink="http://www.w3.org/1999/xlink" version="1.1" x="0px" y="0px" viewBox="0 0 48 58" style="enable-background:new 0 0 48 58;" xml:space="preserve" width="512" height="512">
<g id="_x31_3-Mobile_Conversation">
	<polygon style="fill:#2F4156;" points="0,52 32,52 32,37 32,11 32,6 0,6  "/>
	<path style="fill:#EAEFF0;" d="M32,8H0V2.547C0,1.14,1.14,0,2.547,0h26.907C30.86,0,32,1.14,32,2.547V8z"/>
	<path style="fill:#EAEFF0;" d="M29.453,58H2.547C1.14,58,0,56.86,0,55.453V50h32v5.453C32,56.86,30.86,58,29.453,58z"/>
	<circle style="fill:#B8BEC3;" cx="16" cy="54" r="4"/>
	<path style="fill:#B8BEC3;" d="M16,5h-6C9.448,5,9,4.553,9,4s0.448-1,1-1h6c0.552,0,1,0.447,1,1S16.552,5,16,5z"/>
	<path style="fill:#B8BEC3;" d="M22,5h-1c-0.552,0-1-0.447-1-1s0.448-1,1-1h1c0.552,0,1,0.447,1,1S22.552,5,22,5z"/>
	<path style="fill:#23A24D;" d="M17.907,36.316c-1.439-2.64-2.147-5.725-1.834-9.003c0.698-7.298,6.552-13.297,13.902-14.189   c10.442-1.269,19.21,7.432,17.894,17.775c-0.921,7.24-6.951,13.009-14.289,13.706c-3.339,0.317-6.493-0.384-9.183-1.825   C23.467,44.262,21.062,46,18,46c0,0,0.979-0.625,1.227-1.713C19.847,41.572,19.242,38.765,17.907,36.316z"/>
	<rect x="21" y="27" style="fill:#FFFFFF;" width="4" height="4"/>
	<rect x="30" y="27" style="fill:#FFFFFF;" width="4" height="4"/>
	<rect x="39" y="27" style="fill:#FFFFFF;" width="4" height="4"/>
	<rect x="5" y="26" style="fill:#EBBA16;" width="6" height="6"/>
	<rect x="5" y="37" style="fill:#57ABC1;" width="6" height="6"/>
	<rect x="5" y="15" style="fill:#DD352E;" width="6" height="6"/>
</g>

</svg>
