<?xml version="1.0" encoding="iso-8859-1"?>
<!-- Generator: Adobe Illustrator 19.0.0, SVG Export Plug-In . SVG Version: 6.00 Build 0)  -->
<svg version="1.1" id="Layer_1" xmlns="http://www.w3.org/2000/svg" xmlns:xlink="http://www.w3.org/1999/xlink" x="0px" y="0px"
	 viewBox="0 0 512 512" style="enable-background:new 0 0 512 512;" xml:space="preserve">
<g>
	<g>
		<g>
			<path style="fill:#E2E5E7;" d="M453.491,357.6c0,6.329-5.129,11.458-11.459,11.458H11.459C5.13,369.058,0,363.928,0,357.6V68.098
				C0,61.772,5.13,56.64,11.459,56.64h430.573c6.33,0,11.459,5.133,11.459,11.458L453.491,357.6L453.491,357.6z"/>
		</g>
		<g>
			<path style="fill:#D1D5D5;" d="M278.177,369.059h-51.433H175.31c0,0-2.083,34.374-6.25,41.664h57.684h57.683
				C280.261,403.432,278.177,369.059,278.177,369.059z"/>
		</g>
		<g>
			<path style="fill:#C6CBCB;" d="M294.062,413.587c-6.25-0.782-9.635-2.865-9.635-2.865h-57.683H169.06
				c0,0-3.384,2.083-9.634,2.865c-6.249,0.783-10.416,1.302-10.416,4.428h77.733h77.733
				C304.478,414.889,300.311,414.371,294.062,413.587z"/>
		</g>
		<g>
			<path style="fill:#2D404E;" d="M442.032,56.64H11.459C5.13,56.64,0,61.772,0,68.098V328.09h453.491V68.098
				C453.491,61.772,448.362,56.64,442.032,56.64z M434.721,311.805H207.139H18.768V72.926h334.434h81.52L434.721,311.805
				L434.721,311.805z"/>
		</g>
		<g>
			<polygon style="fill:#E2E5E7;" points="18.768,72.926 18.768,311.805 207.139,311.805 434.721,311.805 434.721,72.926 
				353.202,72.926 			"/>
		</g>
		<g>
			<path style="fill:#C6CBCB;" d="M278.177,369.059h-51.433H175.31c0,0-0.31,5.113-0.929,11.808h104.726
				C278.488,374.171,278.177,369.059,278.177,369.059z"/>
		</g>
		<g>
			<circle style="fill:#2D404E;" cx="226.804" cy="349.536" r="7.451"/>
		</g>
		<rect x="38.894" y="124.278" style="fill:#D1D5D5;" width="376.818" height="84"/>
		<rect x="38.894" y="225.664" style="fill:#D1D5D5;" width="57.587" height="57.586"/>
		<rect x="118.703" y="225.664" style="fill:#D1D5D5;" width="57.586" height="57.586"/>
		<rect x="198.511" y="225.664" style="fill:#D1D5D5;" width="57.586" height="57.586"/>
		<rect x="278.318" y="225.664" style="fill:#D1D5D5;" width="57.586" height="57.586"/>
		<rect x="358.127" y="225.664" style="fill:#D1D5D5;" width="57.586" height="57.586"/>
		<g>
			<g>
				<rect x="107.534" y="225.664" style="fill:#D1D5D5;" width="2.016" height="57.586"/>
			</g>
			<g>
				<rect x="186.833" y="225.664" style="fill:#D1D5D5;" width="2.017" height="57.586"/>
			</g>
			<g>
				<rect x="266.132" y="225.664" style="fill:#D1D5D5;" width="2.016" height="57.586"/>
			</g>
			<g>
				<rect x="345.43" y="225.664" style="fill:#D1D5D5;" width="2.017" height="57.586"/>
			</g>
		</g>
		<path style="fill:#D1D5D5;" d="M379.54,294.868c0,1.479-1.198,2.677-2.676,2.677H76.627c-1.479,0-2.677-1.198-2.677-2.677l0,0
			c0-1.478,1.198-2.675,2.677-2.675h300.237C378.341,292.194,379.54,293.391,379.54,294.868L379.54,294.868z"/>
		<path style="fill:#EB8923;" d="M97.286,99.995c0,2.042-1.656,3.696-3.696,3.696h-51c-2.04,0-3.695-1.654-3.695-3.696l0,0
			c0-2.04,1.655-3.695,3.695-3.695h51C95.63,96.3,97.286,97.955,97.286,99.995L97.286,99.995z"/>
		<path style="fill:#D1D5D5;" d="M97.286,110.075c0,1.021-1.656,1.848-3.696,1.848h-51c-2.04,0-3.695-0.826-3.695-1.848l0,0
			c0-1.02,1.655-1.846,3.695-1.846h51C95.63,108.228,97.286,109.054,97.286,110.075L97.286,110.075z"/>
		<path style="fill:#D1D5D5;" d="M382.7,99.995c0,2.042-1.655,3.696-3.697,3.696h-11.134c-2.041,0-3.697-1.654-3.697-3.696l0,0
			c0-2.04,1.656-3.695,3.697-3.695h11.134C381.045,96.3,382.7,97.955,382.7,99.995L382.7,99.995z"/>
		<path style="fill:#D1D5D5;" d="M349.686,99.995c0,2.042-1.654,3.696-3.696,3.696h-11.135c-2.041,0-3.696-1.654-3.696-3.696l0,0
			c0-2.04,1.655-3.695,3.696-3.695h11.135C348.032,96.3,349.686,97.955,349.686,99.995L349.686,99.995z"/>
		<path style="fill:#D1D5D5;" d="M316.672,99.995c0,2.042-1.654,3.696-3.696,3.696h-11.135c-2.04,0-3.696-1.654-3.696-3.696l0,0
			c0-2.04,1.656-3.695,3.696-3.695h11.135C315.018,96.3,316.672,97.955,316.672,99.995L316.672,99.995z"/>
		<path style="fill:#D1D5D5;" d="M283.66,99.995c0,2.042-1.655,3.696-3.696,3.696h-11.135c-2.041,0-3.696-1.654-3.696-3.696l0,0
			c0-2.04,1.655-3.695,3.696-3.695h11.135C282.005,96.3,283.66,97.955,283.66,99.995L283.66,99.995z"/>
		<path style="fill:#EB8923;" d="M213.225,158.823c0-7.775,6.304-14.078,14.078-14.078c7.775,0,14.078,6.303,14.078,14.078
			s-14.078,28.985-14.078,28.985S213.225,166.598,213.225,158.823z"/>
		<path style="fill:#EB8923;" d="M402.582,97.524c0,0,0.624-3.906,4-3.906c3.378,0,4.003,3.906,4.003,3.906s5.128-0.529,5.128,2.848
			s-5.253,2.626-5.253,2.626s-1.376,3.377-4.128,3.377c-2.751,0-3.75-3.628-3.75-3.628s-5.088,0.627-5.088-2.375
			S402.582,97.524,402.582,97.524z"/>
	</g>
	<g style="opacity:0.21;">
		<path style="fill:#E2E5E7;" d="M11.459,56.64C5.13,56.64,0,61.772,0,68.098V328.09h111.028l188.55-271.45L11.459,56.64
			L11.459,56.64z"/>
	</g>
	<g>
		<g>
			<g>
				<path style="fill:#2D404E;" d="M502.712,418.016c5.131,0,9.288-3.524,9.288-7.873V195.452c0-4.349-4.157-7.875-9.288-7.875
					H328.713c-5.13,0-9.288,3.526-9.288,7.875v214.691c0,4.349,4.158,7.873,9.288,7.873H502.712L502.712,418.016z"/>
			</g>
			<g>
				<rect x="340.169" y="208.277" style="fill:#E2E5E7;" width="151.087" height="189.038"/>
			</g>
			<g>
				<circle style="fill:#C6CBCB;" cx="415.712" cy="407.223" r="7"/>
			</g>
			<g>
				<circle style="fill:#D1D5D5;" cx="415.712" cy="407.223" r="5.609"/>
			</g>
			<g>
				<circle style="fill:#E2E5E7;" cx="415.712" cy="407.223" r="3.925"/>
			</g>
		</g>
		<rect x="347.447" y="254.457" style="fill:#D1D5D5;" width="137.396" height="62.409"/>
		<rect x="347.447" y="327.329" style="fill:#D1D5D5;" width="57.587" height="46.828"/>
		<rect x="427.254" y="327.329" style="fill:#D1D5D5;" width="57.589" height="46.828"/>
		<g>
			<rect x="416.087" y="327.329" style="fill:#D1D5D5;" width="2.017" height="46.828"/>
		</g>
		<path style="fill:#D1D5D5;" d="M484.842,384.501c0,1.479-0.539,2.677-1.203,2.677H348.651c-0.666,0-1.204-1.198-1.204-2.677l0,0
			c0-1.478,0.538-2.675,1.204-2.675h134.988C484.303,381.827,484.842,383.025,484.842,384.501L484.842,384.501z"/>
		<path style="fill:#EB8923;" d="M404.829,229.359c0,2.041-1.653,3.695-3.695,3.695h-50.998c-2.042,0-3.696-1.654-3.696-3.695l0,0
			c0-2.041,1.654-3.695,3.696-3.695h50.998C403.175,225.664,404.829,227.318,404.829,229.359L404.829,229.359z"/>
		<path style="fill:#D1D5D5;" d="M404.829,239.438c0,1.021-1.653,1.848-3.695,1.848h-50.998c-2.042,0-3.696-0.827-3.696-1.848l0,0
			c0-1.021,1.654-1.847,3.696-1.847h50.998C403.175,237.591,404.829,238.417,404.829,239.438L404.829,239.438z"/>
		<path style="fill:#D1D5D5;" d="M468.01,229.359c0,1.305-1.655,2.362-3.696,2.362h-11.135c-2.041,0-3.696-1.058-3.696-2.362l0,0
			c0-1.305,1.655-2.362,3.696-2.362h11.135C466.355,226.997,468.01,228.054,468.01,229.359L468.01,229.359z"/>
		<path style="fill:#D1D5D5;" d="M444.153,229.359c0,1.305-1.654,2.362-3.696,2.362h-11.135c-2.041,0-3.696-1.058-3.696-2.362l0,0
			c0-1.305,1.655-2.362,3.696-2.362h11.135C442.499,226.997,444.153,228.054,444.153,229.359L444.153,229.359z"/>
		<g style="opacity:0.22;">
			<path style="fill:#E2E5E7;" d="M319.424,195.451c0-4.349,4.158-7.875,9.288-7.875h173.999c5.131,0,9.288,3.526,9.288,7.875
				v24.885L319.424,366.1V195.451z"/>
		</g>
		<path style="fill:#EB8923;" d="M407.127,280.887c0-4.98,4.037-9.018,9.018-9.018s9.018,4.037,9.018,9.018
			s-9.018,18.565-9.018,18.565S407.127,285.868,407.127,280.887z"/>
		<path style="fill:#EB8923;" d="M475.348,227.776c0,0,0.4-2.503,2.562-2.503c2.164,0,2.564,2.503,2.564,2.503
			s3.284-0.34,3.284,1.824c0,2.163-3.364,1.682-3.364,1.682s-0.882,2.163-2.645,2.163c-1.762,0-2.402-2.324-2.402-2.324
			s-3.258,0.402-3.258-1.521S475.348,227.776,475.348,227.776z"/>
	</g>
	<g>
		<g>
			<path style="fill:#C6CBCB;" d="M44.492,455.34c8.07,0.002,76.463-157.002,76.463-157.002s0.004-15.395-11.567-15.398
				c-9.002-0.002-63.849-0.02-63.849-0.02c-10.502-0.004-14.505,7.076-14.505,12.945c-0.003,5.868-0.04,142.898-0.043,150.232
				C30.989,453.434,36.422,455.339,44.492,455.34z"/>
		</g>
		<g>
			<path style="fill:#2D404E;" d="M120.915,443.956c-0.001,6.3-4.794,11.405-10.702,11.405l-66.233-0.02
				c-5.909-0.002-10.696-5.113-10.694-11.413l0.039-145.616c0.002-6.301,4.794-11.41,10.702-11.406l66.233,0.021
				c5.907,0.002,10.698,5.11,10.695,11.413L120.915,443.956z"/>
		</g>
		<g>
			<rect x="38.912" y="300.805" style="fill:#E2E5E7;" width="76.418" height="130.396"/>
		</g>
		<g>
			<path style="fill:#586A73;" d="M89.568,294.525c0,0.901-0.742,1.632-1.657,1.63l-21.542-0.008c-0.916,0-1.656-0.729-1.656-1.628
				l0,0c0-0.902,0.742-1.631,1.657-1.631l21.541,0.006C88.826,292.896,89.568,293.624,89.568,294.525L89.568,294.525z"/>
		</g>
		<g>
			<path style="fill:#2D404E;" d="M88.922,295.816c-0.279,0.213-0.631,0.339-1.012,0.339l-21.542-0.008
				c-0.916,0-1.656-0.729-1.656-1.628l0,0c0-0.902,0.742-1.631,1.657-1.631c0,0-0.629,0.748-0.375,1.631
				c0.255,0.884,2.802,0.95,3.949,0.95C71.09,295.471,88.922,295.816,88.922,295.816z"/>
		</g>
		<g>
			<g>
				<ellipse style="fill:#C6CBCB;" cx="77.056" cy="443.163" rx="6.441" ry="6.871"/>
			</g>
			<g>
				<path style="fill:#D1D5D5;" d="M82.559,443.165c0-3.242-2.462-5.869-5.501-5.869c-3.04-0.002-5.504,2.623-5.505,5.865
					c0,3.241,2.462,5.867,5.502,5.867C80.094,449.033,82.558,446.406,82.559,443.165z"/>
			</g>
			<g>
				<ellipse style="fill:#E2E5E7;" cx="77.057" cy="443.163" rx="4.245" ry="4.527"/>
			</g>
		</g>
		<g>
			<path style="fill:#D1D5D5;" d="M90.855,285.765l12.922,0.004c0,0,0.67-0.791,0.001-1.92l-12.923-0.006
				C90.855,283.842,90.043,284.803,90.855,285.765z"/>
		</g>
		<g>
			<path style="fill:#E2E5E7;" d="M103.778,283.849l-12.923-0.006c0,0-0.604,0.717-0.248,1.53l13.378,0.002
				C104.105,285.035,104.164,284.499,103.778,283.849z"/>
		</g>
		<g>
			<path style="fill:#E2E5E7;" d="M55.235,284.792c0,0.531-1.344,0.961-3.004,0.961c-1.659,0-3.003-0.432-3.002-0.961
				c-0.001-0.529,1.343-0.961,3.003-0.961C53.891,283.835,55.235,284.263,55.235,284.792z"/>
		</g>
		<rect x="43.64" y="348.818" style="fill:#D1D5D5;" width="64.665" height="26.266"/>
		<g>
			<rect x="43.64" y="381.461" style="fill:#D1D5D5;" width="28.793" height="28.793"/>
			<rect x="79.512" y="381.461" style="fill:#D1D5D5;" width="28.793" height="28.793"/>
			<g>
				<rect x="75.944" y="381.461" style="fill:#D1D5D5;" width="1.008" height="28.793"/>
			</g>
		</g>
		<path style="fill:#D1D5D5;" d="M108.16,417.775c0,1.332-0.711,2.413-1.589,2.413H45.228c-0.877,0-1.588-1.081-1.588-2.413l0,0
			c0-1.332,0.711-2.412,1.588-2.412h61.343C107.449,415.363,108.16,416.443,108.16,417.775L108.16,417.775z"/>
		<g>
			<path style="fill:#EB8923;" d="M100.826,310.523c0,1.657-1.344,3.002-3.002,3.002H56.418c-1.658,0-3.001-1.345-3.001-3.002l0,0
				c0-1.656,1.343-3.001,3.001-3.001h41.406C99.482,307.523,100.826,308.868,100.826,310.523L100.826,310.523z"/>
			<path style="fill:#D1D5D5;" d="M100.826,318.707c0,0.829-1.344,1.501-3.002,1.501H56.418c-1.658,0-3.001-0.672-3.001-1.501l0,0
				c0-0.828,1.343-1.499,3.001-1.499h41.406C99.482,317.208,100.826,317.879,100.826,318.707L100.826,318.707z"/>
		</g>
		<path style="fill:#D1D5D5;" d="M108.947,337.148c0,1.188-1.453,2.149-3.242,2.149h-9.764c-1.79,0-3.242-0.962-3.242-2.149l0,0
			c0-1.187,1.452-2.149,3.242-2.149h9.764C107.494,334.999,108.947,335.962,108.947,337.148L108.947,337.148z"/>
		<path style="fill:#D1D5D5;" d="M84.418,337.148c0,1.188-1.453,2.149-3.243,2.149h-9.763c-1.791,0-3.243-0.962-3.243-2.149l0,0
			c0-1.187,1.452-2.149,3.243-2.149h9.763C82.964,334.999,84.418,335.962,84.418,337.148L84.418,337.148z"/>
		<path style="fill:#D1D5D5;" d="M59.888,337.148c0,1.188-1.452,2.149-3.243,2.149h-9.764c-1.789,0-3.241-0.962-3.241-2.149l0,0
			c0-1.187,1.452-2.149,3.241-2.149h9.764C58.436,334.999,59.888,335.962,59.888,337.148L59.888,337.148z"/>
		<g style="opacity:0.3;">
			<path style="fill:#E2E5E7;" d="M120.955,298.338c0.003-6.303-4.788-11.411-10.695-11.413l-66.233-0.021
				c-5.908-0.004-10.7,5.105-10.702,11.406l-0.031,117.036l87.661-114.499V298.338z"/>
		</g>
		<path style="fill:#EB8923;" d="M71.358,359.505c0-2.548,2.065-4.614,4.614-4.614s4.614,2.066,4.614,4.614
			c0,2.549-4.614,9.503-4.614,9.503S71.358,362.055,71.358,359.505z"/>
		<path style="fill:#EB8923;" d="M74.086,325.928c0,0,0.293-1.833,1.877-1.833c1.585,0,1.879,1.833,1.879,1.833
			s2.405-0.249,2.405,1.336s-2.465,1.232-2.465,1.232s-0.646,1.584-1.937,1.584s-1.76-1.702-1.76-1.702s-2.388,0.294-2.388-1.114
			S74.086,325.928,74.086,325.928z"/>
	</g>
</g>
<g>
</g>
<g>
</g>
<g>
</g>
<g>
</g>
<g>
</g>
<g>
</g>
<g>
</g>
<g>
</g>
<g>
</g>
<g>
</g>
<g>
</g>
<g>
</g>
<g>
</g>
<g>
</g>
<g>
</g>
</svg>
